<svg width="17" height="17" viewBox="0 0 17 17" fill="none" xmlns="http://www.w3.org/2000/svg">
<path d="M15 0H1.66667C0.75 0 0.00833333 0.75 0.00833333 1.66667L0 16.6667L3.33333 13.3333H15C15.9167 13.3333 16.6667 12.5833 16.6667 11.6667V1.66667C16.6667 0.75 15.9167 0 15 0ZM3.33333 5.83333H13.3333V7.5H3.33333V5.83333ZM10 10H3.33333V8.33333H10V10ZM13.3333 5H3.33333V3.33333H13.3333V5Z" fill="white"/>
<path d="M15 0H1.66667C0.75 0 0.00833333 0.75 0.00833333 1.66667L0 16.6667L3.33333 13.3333H15C15.9167 13.3333 16.6667 12.5833 16.6667 11.6667V1.66667C16.6667 0.75 15.9167 0 15 0ZM3.33333 5.83333H13.3333V7.5H3.33333V5.83333ZM10 10H3.33333V8.33333H10V10ZM13.3333 5H3.33333V3.33333H13.3333V5Z" fill="white"/>
</svg>
