<svg width="22" height="22" viewBox="0 0 22 22" fill="none" xmlns="http://www.w3.org/2000/svg">
<path fill-rule="evenodd" clip-rule="evenodd" d="M16 5.33333C16 8.28 13.6133 10.6667 10.6667 10.6667C7.72 10.6667 5.33333 8.28 5.33333 5.33333C5.33333 2.38667 7.72 0 10.6667 0C13.6133 0 16 2.38667 16 5.33333Z" fill="#6D6D6D"/>
<path fill-rule="evenodd" clip-rule="evenodd" d="M18.6667 15.2911H2.66667C1.10729 16.141 0 17.2667 0 18.6667V21.3333H21.3333V18.6667C21.3333 17.2667 20.226 16.141 18.6667 15.2911Z" fill="white"/>
<path d="M10.6667 13.3333C8.5119 13.3333 5.0578 13.9879 2.66667 15.2911H18.6667C16.2755 13.9879 12.8214 13.3333 10.6667 13.3333Z" fill="#6D6D6D"/>
</svg>
