<svg width="10" height="16" viewBox="0 0 10 16" fill="none" xmlns="http://www.w3.org/2000/svg">
<path d="M3.775 8.20833C4.41667 7.05 5.65 6.36667 6.36667 5.34167C7.125 4.26667 6.7 2.25833 4.55 2.25833C3.14167 2.25833 2.45 3.325 2.15833 4.20833L0 3.3C0.591667 1.525 2.2 0 4.54167 0C6.5 0 7.84167 0.891666 8.525 2.00833C9.10833 2.96667 9.45 4.75833 8.55 6.09167C7.55 7.56667 6.59167 8.01667 6.075 8.96667C5.86667 9.35 5.78333 9.6 5.78333 10.8333H3.375C3.36667 10.1833 3.26667 9.125 3.775 8.20833ZM6.21667 14.1667C6.21667 15.0833 5.46667 15.8333 4.55 15.8333C3.63333 15.8333 2.88333 15.0833 2.88333 14.1667C2.88333 13.25 3.63333 12.5 4.55 12.5C5.46667 12.5 6.21667 13.25 6.21667 14.1667Z" fill="white"/>
</svg>
