<svg width="22" height="24" viewBox="0 0 22 24" fill="none" xmlns="http://www.w3.org/2000/svg">
<path d="M1.33333 24C0.955556 24 0.638889 23.8722 0.383333 23.6167C0.127778 23.3611 0 23.0444 0 22.6667V17.3333C0 16.6 0.261111 15.9722 0.783333 15.45C1.30556 14.9278 1.93333 14.6667 2.66667 14.6667H18.6667C19.4 14.6667 20.0278 14.9278 20.55 15.45C21.0722 15.9722 21.3333 16.6 21.3333 17.3333V22.6667C21.3333 23.0444 21.2056 23.3611 20.95 23.6167C20.6944 23.8722 20.3778 24 20 24H1.33333Z" fill="white"/>
<path fill-rule="evenodd" clip-rule="evenodd" d="M1.95 11.3833C0.65 10.0833 0 8.51111 0 6.66667C0 4.82222 0.65 3.25 1.95 1.95C3.25 0.65 4.82222 0 6.66667 0H14.6667C16.5111 0 18.0833 0.65 19.3833 1.95C20.6833 3.25 21.3333 4.82222 21.3333 6.66667C21.3333 8.51111 20.6833 10.0833 19.3833 11.3833H1.95ZM6.66667 8C7.04444 8 7.36111 7.87222 7.61667 7.61667C7.87222 7.36111 8 7.04444 8 6.66667C8 6.28889 7.87222 5.97222 7.61667 5.71667C7.36111 5.46111 7.04444 5.33333 6.66667 5.33333C6.28889 5.33333 5.97222 5.46111 5.71667 5.71667C5.46111 5.97222 5.33333 6.28889 5.33333 6.66667C5.33333 7.04444 5.46111 7.36111 5.71667 7.61667C5.97222 7.87222 6.28889 8 6.66667 8ZM14.6667 8C15.0444 8 15.3611 7.87222 15.6167 7.61667C15.8722 7.36111 16 7.04444 16 6.66667C16 6.28889 15.8722 5.97222 15.6167 5.71667C15.3611 5.46111 15.0444 5.33333 14.6667 5.33333C14.2889 5.33333 13.9722 5.46111 13.7167 5.71667C13.4611 5.97222 13.3333 6.28889 13.3333 6.66667C13.3333 7.04444 13.4611 7.36111 13.7167 7.61667C13.9722 7.87222 14.2889 8 14.6667 8Z" fill="#6D6D6D"/>
<path d="M1.95 11.3833C3.25 12.6833 4.82222 13.3333 6.66667 13.3333H14.6667C16.5111 13.3333 18.0833 12.6833 19.3833 11.3833H1.95Z" fill="white"/>
</svg>
