<svg width="18" height="21" viewBox="0 0 18 21" fill="none" xmlns="http://www.w3.org/2000/svg">
<path d="M8.9 19L5.525 20.125C5.40833 20.1583 5.3 20.1833 5.2 20.2C5.1 20.2167 5 20.225 4.9 20.225C4.36667 20.225 3.9 20.0375 3.5 19.6625C3.1 19.2875 2.9 18.8083 2.9 18.225V12.775L0.3 8.55C0.2 8.38333 0.125 8.2125 0.075 8.0375C0.025 7.8625 0 7.68333 0 7.5C0 7.31667 0.025 7.1375 0.075 6.9625C0.125 6.7875 0.2 6.61667 0.3 6.45L3.7 0.95C3.88333 0.65 4.125 0.416667 4.425 0.25C4.725 0.0833333 5.05 0 5.4 0H12.4C12.75 0 13.075 0.0833333 13.375 0.25C13.675 0.416667 13.9167 0.65 14.1 0.95L17.5 6.45C17.6 6.61667 17.675 6.7875 17.725 6.9625C17.775 7.1375 17.8 7.31667 17.8 7.5C17.8 7.68333 17.775 7.8625 17.725 8.0375C17.675 8.2125 17.6 8.38333 17.5 8.55L14.9 12.775V18.225C14.9 18.8083 14.7 19.2875 14.3 19.6625C13.9 20.0375 13.4333 20.225 12.9 20.225C12.8 20.225 12.7 20.2167 12.6 20.2C12.5 20.1833 12.3917 20.1583 12.275 20.125L8.9 19ZM5.4 13H12.4L15.8 7.5L12.4 2H5.4L2 7.5L5.4 13ZM7.85 8.75L11.375 5.2C11.5583 5 11.7875 4.90417 12.0625 4.9125C12.3375 4.92083 12.575 5.01667 12.775 5.2C12.975 5.4 13.0792 5.6375 13.0875 5.9125C13.0958 6.1875 13 6.425 12.8 6.625L8.55 10.875C8.35 11.075 8.11667 11.175 7.85 11.175C7.58333 11.175 7.35 11.075 7.15 10.875L5.025 8.75C4.825 8.55 4.725 8.3125 4.725 8.0375C4.725 7.7625 4.825 7.525 5.025 7.325C5.225 7.125 5.4625 7.025 5.7375 7.025C6.0125 7.025 6.25 7.125 6.45 7.325L7.85 8.75Z" fill="#6D6D6D"/>
<path d="M8.9 19L5.525 20.125C5.40833 20.1583 5.3 20.1833 5.2 20.2C5.1 20.2167 5 20.225 4.9 20.225C4.36667 20.225 3.9 20.0375 3.5 19.6625C3.1 19.2875 2.9 18.8083 2.9 18.225V12.775L0.3 8.55C0.2 8.38333 0.125 8.2125 0.075 8.0375C0.025 7.8625 0 7.68333 0 7.5C0 7.31667 0.025 7.1375 0.075 6.9625C0.125 6.7875 0.2 6.61667 0.3 6.45L3.7 0.95C3.88333 0.65 4.125 0.416667 4.425 0.25C4.725 0.0833333 5.05 0 5.4 0H12.4C12.75 0 13.075 0.0833333 13.375 0.25C13.675 0.416667 13.9167 0.65 14.1 0.95L17.5 6.45C17.6 6.61667 17.675 6.7875 17.725 6.9625C17.775 7.1375 17.8 7.31667 17.8 7.5C17.8 7.68333 17.775 7.8625 17.725 8.0375C17.675 8.2125 17.6 8.38333 17.5 8.55L14.9 12.775V18.225C14.9 18.8083 14.7 19.2875 14.3 19.6625C13.9 20.0375 13.4333 20.225 12.9 20.225C12.8 20.225 12.7 20.2167 12.6 20.2C12.5 20.1833 12.3917 20.1583 12.275 20.125L8.9 19ZM5.4 13H12.4L15.8 7.5L12.4 2H5.4L2 7.5L5.4 13ZM7.85 8.75L11.375 5.2C11.5583 5 11.7875 4.90417 12.0625 4.9125C12.3375 4.92083 12.575 5.01667 12.775 5.2C12.975 5.4 13.0792 5.6375 13.0875 5.9125C13.0958 6.1875 13 6.425 12.8 6.625L8.55 10.875C8.35 11.075 8.11667 11.175 7.85 11.175C7.58333 11.175 7.35 11.075 7.15 10.875L5.025 8.75C4.825 8.55 4.725 8.3125 4.725 8.0375C4.725 7.7625 4.825 7.525 5.025 7.325C5.225 7.125 5.4625 7.025 5.7375 7.025C6.0125 7.025 6.25 7.125 6.45 7.325L7.85 8.75Z" fill="url(#paint0_linear_98_143)"/>
<defs>
<linearGradient id="paint0_linear_98_143" x1="8.9" y1="0" x2="8.9" y2="20.225" gradientUnits="userSpaceOnUse">
<stop stop-color="#33FF00" stop-opacity="0.25"/>
<stop offset="1" stop-color="#0095FF"/>
</linearGradient>
</defs>
</svg>
